<svg xmlns="http://www.w3.org/2000/svg" xmlns:xlink="http://www.w3.org/1999/xlink" width="819.75" height="510.588" viewBox="0 0 819.75 510.588">
  <defs>
    <clipPath id="clip-path">
      <rect id="Rectangle_183" data-name="Rectangle 183" width="585.698" height="424.262" fill="none"/>
    </clipPath>
  </defs>
  <g id="Group_1182" data-name="Group 1182" transform="translate(-55.126 -35.304)">
    <g id="Group_464" data-name="Group 464" transform="translate(56.11 150.893)">
      <g id="Group_448" data-name="Group 448" transform="translate(89.099)">
        <g id="Group_447" data-name="Group 447">
          <line id="Line_1" data-name="Line 1" x2="636.831" transform="translate(0 41.746)" fill="none" stroke="#ded8d5" stroke-miterlimit="10" stroke-width="1.968"/>
          <rect id="Rectangle_169" data-name="Rectangle 169" width="636.831" height="394.014" rx="6.521" fill="none" stroke="#ded8d5" stroke-miterlimit="10" stroke-width="1.968"/>
          <g id="Group_446" data-name="Group 446" transform="translate(30.319 15.474)">
            <path id="Path_736" data-name="Path 736" d="M161.4,143.9a5.825,5.825,0,1,1-5.825-5.824A5.825,5.825,0,0,1,161.4,143.9Z" transform="translate(-149.751 -138.077)" fill="#ffb1a5"/>
            <path id="Path_737" data-name="Path 737" d="M179.154,143.9a5.825,5.825,0,1,1-5.824-5.824A5.825,5.825,0,0,1,179.154,143.9Z" transform="translate(-144.864 -138.077)" fill="#ead254"/>
            <path id="Path_738" data-name="Path 738" d="M196.907,143.9a5.825,5.825,0,1,1-5.825-5.824A5.825,5.825,0,0,1,196.907,143.9Z" transform="translate(-139.978 -138.077)" fill="#00857b"/>
          </g>
        </g>
      </g>
      <g id="Group_457" data-name="Group 457" transform="translate(651.351 28.655)">
        <g id="Group_451" data-name="Group 451">
          <g id="Group_450" data-name="Group 450">
            <g id="Group_449" data-name="Group 449">
              <rect id="Rectangle_170" data-name="Rectangle 170" width="164.948" height="153.7" rx="5.991" fill="#ededed"/>
              <rect id="Rectangle_171" data-name="Rectangle 171" width="164.948" height="153.7" rx="5.991" fill="none" stroke="#ded8d5" stroke-miterlimit="10" stroke-width="1.968"/>
            </g>
          </g>
        </g>
        <g id="Group_456" data-name="Group 456" transform="translate(36.145 34.607)">
          <g id="Group_454" data-name="Group 454">
            <g id="Group_453" data-name="Group 453">
              <g id="Group_452" data-name="Group 452">
                <rect id="Rectangle_172" data-name="Rectangle 172" width="93.148" height="79.111" rx="6.022" transform="translate(93.148 79.111) rotate(180)" fill="#048c7e"/>
              </g>
            </g>
          </g>
          <g id="Group_455" data-name="Group 455" transform="translate(24.836 23.881)">
            <path id="Path_739" data-name="Path 739" d="M657.67,223.1H614.683V194.276H657.67V223.1Z" transform="translate(-614.683 -194.276)" fill="none" stroke="#fff" stroke-linecap="round" stroke-linejoin="round" stroke-width="1.647"/>
            <path id="Path_740" data-name="Path 740" d="M614.683,194.276l21.493,16.938,21.493-16.938" transform="translate(-614.683 -194.276)" fill="none" stroke="#fff" stroke-linecap="round" stroke-linejoin="round" stroke-width="1.647"/>
          </g>
        </g>
      </g>
      <g id="Group_463" data-name="Group 463" transform="translate(0 159.244)">
        <g id="Group_460" data-name="Group 460">
          <g id="Group_459" data-name="Group 459">
            <g id="Group_458" data-name="Group 458">
              <rect id="Rectangle_173" data-name="Rectangle 173" width="157.308" height="139.019" rx="5.713" fill="#ededed"/>
              <rect id="Rectangle_174" data-name="Rectangle 174" width="157.308" height="139.019" rx="5.713" fill="none" stroke="#ded8d5" stroke-miterlimit="10" stroke-width="1.968"/>
            </g>
          </g>
        </g>
        <g id="Group_462" data-name="Group 462" transform="translate(32.803 23.809)">
          <rect id="Rectangle_175" data-name="Rectangle 175" width="90.962" height="88.426" rx="6.639" fill="#ffb1a5"/>
          <g id="Group_461" data-name="Group 461" transform="translate(20.36 19.363)">
            <path id="Path_741" data-name="Path 741" d="M105.288,292.158a25.718,25.718,0,1,0,36.371,0A25.821,25.821,0,0,0,105.288,292.158Zm36.312,3.7h-8.2a52.145,52.145,0,0,0-3.187-7.723A23.232,23.232,0,0,1,141.6,295.861ZM114.03,308.84a41.611,41.611,0,0,1,1.218-9.971H131.7a41.548,41.548,0,0,1,1.218,9.971Zm18.786,3.007a49,49,0,0,1-1.766,9.971H115.9a48.9,48.9,0,0,1-1.768-9.971Zm-9.343-24.7a23.36,23.36,0,0,1,3.633.282,47.255,47.255,0,0,1,3.729,8.437H116.111a47.254,47.254,0,0,1,3.729-8.437A23.372,23.372,0,0,1,123.473,287.142Zm-6.744,1a52,52,0,0,0-3.186,7.723h-8.2A23.214,23.214,0,0,1,116.73,288.138ZM103.3,298.868h9.387a44.747,44.747,0,0,0-1.315,9.971H100.321A23.08,23.08,0,0,1,103.3,298.868Zm0,22.95a23.057,23.057,0,0,1-2.983-9.971h11.1a48.452,48.452,0,0,0,1.566,9.971Zm2.044,3.007h8.528a62.394,62.394,0,0,0,3.17,7.817A23.215,23.215,0,0,1,105.348,324.825Zm18.125,8.72a23.425,23.425,0,0,1-3.039-.2,69.226,69.226,0,0,1-3.6-8.523H130.11a69.622,69.622,0,0,1-3.6,8.523A23.459,23.459,0,0,1,123.473,333.546Zm6.429-.9a62.309,62.309,0,0,0,3.169-7.817H141.6A23.215,23.215,0,0,1,129.9,332.643Zm13.741-10.824h-9.684a48.253,48.253,0,0,0,1.566-9.971h11.1A23.063,23.063,0,0,1,143.643,321.818Zm2.983-12.978H135.57a44.746,44.746,0,0,0-1.315-9.971h9.387A23.08,23.08,0,0,1,146.626,308.84Z" transform="translate(-97.797 -284.667)" fill="#fff"/>
          </g>
        </g>
      </g>
    </g>
    <g id="Group_475" data-name="Group 475" transform="translate(63.477 35.304)">
      <path id="Path_742" data-name="Path 742" d="M196.035,99.52H66.724a4.838,4.838,0,0,1-4.837-4.837h0a4.838,4.838,0,0,1,4.837-4.837H196.035a4.837,4.837,0,0,1,4.837,4.837h0A4.837,4.837,0,0,1,196.035,99.52Z" transform="translate(-61.887 -20.29)" fill="#048c7e"/>
      <path id="Path_743" data-name="Path 743" d="M708.942,347.2H646.179a4.837,4.837,0,0,1-4.837-4.837h0a4.837,4.837,0,0,1,4.837-4.837h62.762a4.838,4.838,0,0,1,4.837,4.837h0A4.838,4.838,0,0,1,708.942,347.2Z" transform="translate(97.62 47.89)" fill="#d99441"/>
      <rect id="Rectangle_176" data-name="Rectangle 176" width="14.967" height="14.497" rx="2.861" transform="translate(751.286 436.553)" fill="#048c7e"/>
      <rect id="Rectangle_177" data-name="Rectangle 177" width="14.967" height="14.497" rx="2.861" transform="translate(24.321 470.064)" fill="#ffb1a5"/>
      <g id="Group_467" data-name="Group 467" transform="translate(491.14 35.389)">
        <g id="Group_466" data-name="Group 466">
          <rect id="Rectangle_178" data-name="Rectangle 178" width="135.316" height="38.844" rx="3.012" fill="#ffb1a5"/>
          <g id="Group_465" data-name="Group 465" transform="translate(18.431 13.841)">
            <line id="Line_2" data-name="Line 2" x2="90.771" fill="none" stroke="#fff" stroke-miterlimit="10" stroke-width="1.18"/>
            <line id="Line_3" data-name="Line 3" x2="36.972" transform="translate(0 9.317)" fill="none" stroke="#fff" stroke-miterlimit="10" stroke-width="1.18"/>
          </g>
        </g>
        <path id="Path_744" data-name="Path 744" d="M458.571,90.068v15.138l19.039-15.138Z" transform="translate(-443.832 -55.618)" fill="#ffb1a5"/>
      </g>
      <g id="Group_474" data-name="Group 474" transform="translate(236.384)">
        <g id="Group_472" data-name="Group 472">
          <g id="Group_471" data-name="Group 471">
            <g id="Group_470" data-name="Group 470">
              <g id="Group_469" data-name="Group 469">
                <g id="Group_468" data-name="Group 468">
                  <path id="Rectangle_179" data-name="Rectangle 179" d="M6.46,0H74.428a6.46,6.46,0,0,1,6.46,6.46V70.085a6.46,6.46,0,0,1-6.46,6.46H8.521A8.521,8.521,0,0,1,0,68.024V6.46A6.46,6.46,0,0,1,6.46,0Z" fill="#d99441"/>
                </g>
              </g>
            </g>
          </g>
        </g>
        <g id="Group_473" data-name="Group 473" transform="translate(23.105 16.956)">
          <path id="Path_745" data-name="Path 745" d="M301.58,75.577l-4.606-4.606a4.035,4.035,0,0,0-2.961-1.4,4.266,4.266,0,0,0-2.961,1.315l-2.631,2.632-.494-.246a7.582,7.582,0,0,1-.823-.412,28.359,28.359,0,0,1-6.827-6.25,14.933,14.933,0,0,1-2.139-3.373c.658-.575,1.233-1.233,1.81-1.808l.74-.741a4.011,4.011,0,0,0,0-6.086l-2.3-2.3a7.469,7.469,0,0,1-.74-.823l-1.563-1.563a4.263,4.263,0,0,0-2.96-1.315,4.074,4.074,0,0,0-2.961,1.315l-2.88,2.88a6.616,6.616,0,0,0-1.891,4.03,14.961,14.961,0,0,0,1.07,6.25,33.637,33.637,0,0,0,6.415,10.775,39.984,39.984,0,0,0,13.16,10.281,21.844,21.844,0,0,0,7.4,2.22h.575a6.53,6.53,0,0,0,4.935-2.139l.082-.082a12.658,12.658,0,0,1,1.481-1.481l1.07-1.069A4.127,4.127,0,0,0,301.58,75.577Zm-1.893,4.276-.987.987c-.575.494-1.069,1.07-1.645,1.645a3.909,3.909,0,0,1-2.96,1.234h-.412a17.323,17.323,0,0,1-6.415-1.974,37.438,37.438,0,0,1-12.255-9.623,35.673,35.673,0,0,1-6-9.952,10.19,10.19,0,0,1-.987-5.1,3.466,3.466,0,0,1,1.152-2.385l2.8-2.8a1.725,1.725,0,0,1,1.152-.575,1.568,1.568,0,0,1,1.15.575l1.481,1.481a7.7,7.7,0,0,0,.823.823l2.3,2.3a1.926,1.926,0,0,1,.576,1.152,1.724,1.724,0,0,1-.576,1.152l-.74.74L276.082,61.6l-.082.082a1.8,1.8,0,0,0-.494,2.056v.083a18.981,18.981,0,0,0,2.714,4.442,30.537,30.537,0,0,0,7.485,6.827,6.851,6.851,0,0,0,1.07.575,7.7,7.7,0,0,1,.823.412l.082.082a1.889,1.889,0,0,0,2.3-.411l2.878-2.88a1.359,1.359,0,0,1,2.222,0l4.6,4.606A1.557,1.557,0,0,1,299.688,79.853Z" transform="translate(-265.365 -48.6)" fill="#fff"/>
        </g>
      </g>
    </g>
    <g id="Group_530" data-name="Group 530" transform="translate(203.87 119.615)">
      <g id="Group_529" data-name="Group 529" clip-path="url(#clip-path)">
        <g id="Group_528" data-name="Group 528" transform="translate(3.829 5.148)">
          <g id="Group_494" data-name="Group 494" transform="translate(328.084 16.208)">
            <g id="Group_476" data-name="Group 476" transform="translate(7.143 254.492)">
              <path id="Path_746" data-name="Path 746" d="M536.19,323.92l-46.549-6.2.363,4.622-39.8,5.3s-25.653,64.362-3.044,205.912h32.375l11.652-143.531h4.138l11.285,143.531h32.375C561.6,392.005,536.19,323.92,536.19,323.92Z" transform="translate(-437.845 -317.722)" fill="#8e716c"/>
              <line id="Line_4" data-name="Line 4" x2="33.777" transform="translate(38.541 72.303)" fill="none" stroke="#282828" stroke-linecap="round" stroke-linejoin="round" stroke-width="1.233"/>
            </g>
            <g id="Group_482" data-name="Group 482" transform="translate(103.318 168.338)">
              <g id="Group_478" data-name="Group 478" transform="translate(0 18.177)">
                <g id="Group_477" data-name="Group 477">
                  <path id="Path_747" data-name="Path 747" d="M542.615,270.7c-3.983-6.357-26.353-6.132-27.534-6.271-6.047-.709,3.878,47.415,16.459,89.481a14.124,14.124,0,0,0,19.036,8.98l.251-.106a14.143,14.143,0,0,0,8.386-15.649C553.229,315.389,547.222,278.046,542.615,270.7Z" transform="translate(-513.261 -264.418)" fill="#ffb1a5"/>
                </g>
                <path id="Path_748" data-name="Path 748" d="M547.2,285.112l-28.562,11.083-2.678-13.552,29.576-7.378Z" transform="translate(-512.517 -261.432)" fill="#f3978e"/>
                <path id="Path_749" data-name="Path 749" d="M547.476,306.842s-13.531,18.171-12.885,17.336S545.2,294.812,545.2,294.812Z" transform="translate(-507.395 -256.051)" fill="#f3978e"/>
              </g>
              <g id="Group_481" data-name="Group 481" transform="translate(17.671)">
                <path id="Path_750" data-name="Path 750" d="M568.873,285.092,530.09,335.343a14.261,14.261,0,0,0,3.525,20.675h0a14.261,14.261,0,0,0,20.3-5.166l32.282-59.56Z" transform="translate(-527.117 -240.55)" fill="#ffb1a5"/>
                <g id="Group_479" data-name="Group 479" transform="translate(40.709 23.341)">
                  <path id="Path_751" data-name="Path 751" d="M570.124,301.951a16,16,0,1,1,20.142-10.305A16,16,0,0,1,570.124,301.951Z" transform="translate(-559.039 -267.845)" fill="#ffb1a5"/>
                  <path id="Path_752" data-name="Path 752" d="M586.539,277.733s4.378-4.546-3.388-7.732-17.37-2.455-23.5,12.43Z" transform="translate(-558.871 -268.467)" fill="#ffb1a5"/>
                </g>
                <g id="Group_480" data-name="Group 480" transform="translate(50.74)">
                  <path id="Path_753" data-name="Path 753" d="M592.253,250.862l16.239,7.041a1.675,1.675,0,0,1,.735,2.392l-21.363,39.9a2.043,2.043,0,0,1-2.537.974l-16.239-7.041a1.674,1.674,0,0,1-.735-2.392l21.363-39.9A2.042,2.042,0,0,1,592.253,250.862Z" transform="translate(-566.57 -250.012)" fill="#372f5f"/>
                  <path id="Path_754" data-name="Path 754" d="M591.037,250.308l16.239,7.041a1.675,1.675,0,0,1,.734,2.392l-21.363,39.9a2.043,2.043,0,0,1-2.536.974l-16.239-7.041a1.673,1.673,0,0,1-.735-2.392l21.363-39.9A2.042,2.042,0,0,1,591.037,250.308Z" transform="translate(-566.905 -250.164)" fill="#261b43"/>
                  <path id="Path_755" data-name="Path 755" d="M588.15,253.461l14.269,6.186-17.411,32.521-14.269-6.186Z" transform="translate(-565.849 -249.257)" fill="#e6e6e6"/>
                  <path id="Path_756" data-name="Path 756" d="M602.418,259.647l-31.679,26.335,17.411-32.521Z" transform="translate(-565.849 -249.257)" fill="#fff"/>
                </g>
                <path id="Path_757" data-name="Path 757" d="M577.234,268.631a25.91,25.91,0,0,1,6.88,2.553,3.674,3.674,0,0,1,1.775,4.078h0A3.648,3.648,0,0,1,582.805,278l-8.442,1.065s-4.4,7.592-10.16,8.445l5.28-13.33Z" transform="translate(-516.908 -245.081)" fill="#ffb1a5"/>
              </g>
            </g>
            <g id="Group_484" data-name="Group 484" transform="translate(0 129.514)">
              <g id="Group_483" data-name="Group 483">
                <path id="Path_758" data-name="Path 758" d="M505.742,219.721c-.932-.005,59.869,8.413,69.9,77.733l-31.55,4.835-6.361,52.332H449.718l-17.474-96.691s19.5-27.946,55.706-38.208Z" transform="translate(-432.244 -219.721)" fill="#d99441"/>
                <line id="Line_5" data-name="Line 5" y1="30.267" x2="2.739" transform="translate(111.85 52.3)" fill="none" stroke="#282828" stroke-linecap="round" stroke-linejoin="round" stroke-width="1.233"/>
              </g>
            </g>
            <path id="Path_759" data-name="Path 759" d="M502.135,225.7V201.617H473.918v24.362a54.8,54.8,0,0,0-7.58,3.075l22.007,13.109,22.5-13.11A36.708,36.708,0,0,0,502.135,225.7Z" transform="translate(-422.859 -95.19)" fill="#ffb1a5"/>
            <path id="Path_760" data-name="Path 760" d="M472.077,205.526s5.068,13.455,18.595,12.294c12.434-1.067,10.455-19.716,10.455-19.716Z" transform="translate(-421.279 -96.157)" fill="#282828"/>
            <g id="Group_487" data-name="Group 487" transform="translate(27.405 74.573)">
              <path id="Path_761" data-name="Path 761" d="M464.82,193.539c-4.423,4.012-14.312-11.2-10.039-15.477s7.533,2.431,7.533,2.431l1.909,4.541,1.438,6.152L466,192.8Z" transform="translate(-453.733 -176.639)" fill="#f3978e"/>
              <g id="Group_486" data-name="Group 486" transform="translate(3.114 6.593)">
                <g id="Group_485" data-name="Group 485">
                  <path id="Path_762" data-name="Path 762" d="M456.175,182.03s3.348-1.506,6.322,3.348" transform="translate(-456.175 -181.809)" fill="none" stroke="#282828" stroke-linecap="round" stroke-linejoin="round" stroke-width="0.993"/>
                </g>
              </g>
            </g>
            <g id="Group_490" data-name="Group 490" transform="translate(89.678 74.766)">
              <path id="Path_763" data-name="Path 763" d="M503.682,193.036c4.067,4.372,15.208-9.954,11.312-14.571s-7.713,1.784-7.713,1.784L505,184.612l-1.955,6.008-.477,1.576Z" transform="translate(-502.565 -176.791)" fill="#f3978e"/>
              <g id="Group_489" data-name="Group 489" transform="translate(3.332 6.527)">
                <g id="Group_488" data-name="Group 488">
                  <path id="Path_764" data-name="Path 764" d="M511.761,182.251s-3.209-1.784-6.583,2.8" transform="translate(-505.178 -181.909)" fill="none" stroke="#282828" stroke-linecap="round" stroke-linejoin="round" stroke-width="0.993"/>
                </g>
              </g>
            </g>
            <g id="Group_491" data-name="Group 491" transform="translate(30.734 27.636)">
              <path id="Path_765" data-name="Path 765" d="M456.344,173.68c0,20.142,15.357,29.692,34.3,29.692s34.3-9.551,34.3-29.692-15.357-33.846-34.3-33.846S456.344,153.537,456.344,173.68Z" transform="translate(-456.344 -139.834)" fill="#282828"/>
            </g>
            <path id="Path_766" data-name="Path 766" d="M460,174.081A137.7,137.7,0,0,0,463.5,204.69c1.708,7.414,6.512,12.6,13.3,16.766l1.237.76a23.343,23.343,0,0,0,23.761.263h0c7.356-4.289,12.508-9.943,14.092-17.9a201.291,201.291,0,0,0,3.2-30.5s2.743-31.214-29.118-30.608S460,174.081,460,174.081Z" transform="translate(-424.608 -111.198)" fill="#ffb1a5"/>
            <g id="Group_493" data-name="Group 493" transform="translate(34.738 60.553)">
              <path id="Path_767" data-name="Path 767" d="M481.648,181.441v4.319a1.965,1.965,0,0,0,.139.726,1.925,1.925,0,0,0,2.294,1.061l1.982-.525" transform="translate(-453.382 -161.298)" fill="none" stroke="#282828" stroke-linecap="round" stroke-linejoin="round" stroke-width="1.232"/>
              <path id="Path_768" data-name="Path 768" d="M481.093,168.773l-15.834,3.712s.719-4.03,7.2-5.5S481.093,168.773,481.093,168.773Z" transform="translate(-457.894 -165.38)" fill="#282828"/>
              <path id="Path_769" data-name="Path 769" d="M488.7,168.773l15.291,3.712s-.7-4.03-6.95-5.5S488.7,168.773,488.7,168.773Z" transform="translate(-451.442 -165.38)" fill="#282828"/>
              <ellipse id="Ellipse_56" data-name="Ellipse 56" cx="2.671" cy="2.663" rx="2.671" ry="2.663" transform="translate(14.513 12.362)" fill="#282828"/>
              <path id="Path_770" data-name="Path 770" d="M496.057,178a2.67,2.67,0,1,1-2.67-2.664A2.666,2.666,0,0,1,496.057,178Z" transform="translate(-450.886 -162.977)" fill="#282828"/>
              <path id="Path_771" data-name="Path 771" d="M475.052,190.172h20.593S486.518,201.275,475.052,190.172Z" transform="translate(-455.198 -158.894)" fill="#fff"/>
              <g id="Group_492" data-name="Group 492">
                <circle id="Ellipse_57" data-name="Ellipse 57" cx="11.356" cy="11.356" r="11.356" transform="translate(0 16.06) rotate(-45)" fill="none" stroke="#d94e41" stroke-miterlimit="10" stroke-width="1.342"/>
                <circle id="Ellipse_58" data-name="Ellipse 58" cx="11.356" cy="11.356" r="11.356" transform="translate(27.898 16.06) rotate(-45)" fill="none" stroke="#d94e41" stroke-miterlimit="10" stroke-width="1.342"/>
                <path id="Path_772" data-name="Path 772" d="M480.982,178.48s2.69-2.51,5.185,0" transform="translate(-453.566 -162.42)" fill="none" stroke="#d94e41" stroke-miterlimit="10" stroke-width="1.342"/>
                <line id="Line_6" data-name="Line 6" x1="3.577" y1="0.091" transform="translate(1.127 15.969)" fill="none" stroke="#d94e41" stroke-miterlimit="10" stroke-width="1.342"/>
                <line id="Line_7" data-name="Line 7" y1="0.091" x2="3.599" transform="translate(55.314 15.969)" fill="none" stroke="#d94e41" stroke-miterlimit="10" stroke-width="1.342"/>
              </g>
            </g>
            <path id="Path_773" data-name="Path 773" d="M508.217,183.07s-12.739-17.221-9.8-34.668a25.1,25.1,0,0,1,11.917,17.039C512.8,177.723,508.217,183.07,508.217,183.07Z" transform="translate(-414.15 -109.839)" fill="#282828"/>
            <path id="Path_774" data-name="Path 774" d="M460.366,184.49s14.8-19.56,11.86-37.007c0,0-10.263,5.93-12.726,18.211S460.366,184.49,460.366,184.49Z" transform="translate(-424.991 -110.092)" fill="#282828"/>
            <path id="Path_775" data-name="Path 775" d="M518.36,156.905S502,174.813,457.249,171.747c0,0,6.853-26.277,28.542-29.076C485.791,142.671,510.833,139.68,518.36,156.905Z" transform="translate(-425.361 -111.471)" fill="#282828"/>
            <circle id="Ellipse_59" data-name="Ellipse 59" cx="21.368" cy="21.368" r="21.368" transform="translate(67.351 42.19) rotate(-80.831)" fill="#282828"/>
          </g>
          <g id="Group_506" data-name="Group 506" transform="translate(30.015 40.073)">
            <path id="Path_776" data-name="Path 776" d="M320.912,324.686l-39.8-5.3.363-4.623-46.549,6.2s-25.406,68.085-2.8,209.636h32.375L275.79,387.067h4.138L291.581,530.6h32.375C346.565,389.048,320.912,324.686,320.912,324.686Z" transform="translate(-191.84 -87.909)" fill="#282828"/>
            <path id="Path_777" data-name="Path 777" d="M319.415,179.492c-5.387-6.338-9.7-13.731-13.365-24.1-3.934-11.137-16.82-6.61-16.82-6.61s-10.737-13.812-26.893-9-21.77,16.308-22.1,29.977-11.081,15.807-19.36,31.619c-14.615,27.916,9.992,51.429,54.784,44.906l.061-.435a47,47,0,0,0,16.415,1.533C345.95,244.182,340.758,204.6,319.415,179.492Z" transform="translate(-193.518 -136.358)" fill="#282828"/>
            <g id="Group_497" data-name="Group 497" transform="translate(107.095 46.936)">
              <path id="Path_778" data-name="Path 778" d="M283.677,190.581c4.423,4.011,14.312-11.2,10.039-15.477s-7.534,2.431-7.534,2.431l-1.908,4.541-1.439,6.152-.343,1.611Z" transform="translate(-282.492 -173.68)" fill="#f3978e"/>
              <g id="Group_496" data-name="Group 496" transform="translate(2.836 6.594)">
                <g id="Group_495" data-name="Group 495">
                  <path id="Path_779" data-name="Path 779" d="M291.038,179.072s-3.348-1.506-6.322,3.346" transform="translate(-284.716 -178.851)" fill="none" stroke="#282828" stroke-linecap="round" stroke-linejoin="round" stroke-width="0.993"/>
                </g>
              </g>
            </g>
            <g id="Group_500" data-name="Group 500" transform="translate(43.851 47.129)">
              <path id="Path_780" data-name="Path 780" d="M245.024,190.078c-4.067,4.37-15.208-9.953-11.312-14.573s7.713,1.785,7.713,1.785l2.284,4.364,1.955,6.008.477,1.576Z" transform="translate(-232.899 -173.832)" fill="#f3978e"/>
              <g id="Group_499" data-name="Group 499" transform="translate(3.327 6.529)">
                <g id="Group_498" data-name="Group 498">
                  <path id="Path_781" data-name="Path 781" d="M235.508,179.293s3.209-1.784,6.583,2.8" transform="translate(-235.508 -178.951)" fill="none" stroke="#282828" stroke-linecap="round" stroke-linejoin="round" stroke-width="0.993"/>
                </g>
              </g>
            </g>
            <g id="Group_501" data-name="Group 501" transform="translate(47.437)">
              <path id="Path_782" data-name="Path 782" d="M304.31,170.72c0,20.142-15.356,29.693-34.3,29.693s-34.3-9.552-34.3-29.693,15.357-33.844,34.3-33.844S304.31,150.579,304.31,170.72Z" transform="translate(-235.711 -136.876)" fill="#282828"/>
            </g>
            <rect id="Rectangle_180" data-name="Rectangle 180" width="28.217" height="36.538" transform="translate(67.496 78.79)" fill="#ffb1a5"/>
            <path id="Path_783" data-name="Path 783" d="M248.211,196.872s7.854,15.676,17.517,18.123a13.6,13.6,0,0,0,7.828-.453c3.637-1.289,8.25-6.71,9.033-12.711l.365-3.428S265.759,207.765,248.211,196.872Z" transform="translate(-184.833 -120.361)" fill="#282828"/>
            <path id="Path_784" data-name="Path 784" d="M298.614,171.123a137.681,137.681,0,0,1-3.492,30.608c-1.708,7.414-6.512,12.6-13.3,16.767l-1.237.759a23.343,23.343,0,0,1-23.761.264h0c-7.357-4.289-12.508-9.943-14.093-17.9a201.385,201.385,0,0,1-3.2-30.5s-2.743-31.215,29.118-30.608S298.614,171.123,298.614,171.123Z" transform="translate(-187.238 -135.877)" fill="#ffb1a5"/>
            <g id="Group_502" data-name="Group 502" transform="translate(60.178 35.492)">
              <path id="Path_785" data-name="Path 785" d="M260.938,179.808v2.566a1.958,1.958,0,0,0,.139.724,1.927,1.927,0,0,0,2.294,1.057l1.982-.524" transform="translate(-241.508 -160.55)" fill="none" stroke="#282828" stroke-linecap="round" stroke-linejoin="round" stroke-width="1.23"/>
              <path id="Path_786" data-name="Path 786" d="M266.144,167.045l16.951,4.012s-.77-4.356-7.705-5.939S266.144,167.045,266.144,167.045Z" transform="translate(-240.075 -164.707)" fill="#282828"/>
              <path id="Path_787" data-name="Path 787" d="M262.871,167.045,245.7,171.057s.78-4.356,7.8-5.939S262.871,167.045,262.871,167.045Z" transform="translate(-245.702 -164.707)" fill="#282828"/>
              <path id="Path_788" data-name="Path 788" d="M255.495,175.363a2.67,2.67,0,1,1-2.67-2.655A2.662,2.662,0,0,1,255.495,175.363Z" transform="translate(-244.477 -162.505)" fill="#282828"/>
              <path id="Path_789" data-name="Path 789" d="M275.347,175.363a2.67,2.67,0,1,1-2.67-2.655A2.662,2.662,0,0,1,275.347,175.363Z" transform="translate(-239.012 -162.505)" fill="#282828"/>
              <path id="Path_790" data-name="Path 790" d="M252.959,186.7H276.4s-1.654,6.44-12.282,6.44A12.431,12.431,0,0,1,252.959,186.7Z" transform="translate(-243.704 -158.653)" fill="#fff"/>
            </g>
            <path id="Path_791" data-name="Path 791" d="M240.455,180.113s12.739-17.223,9.8-34.67a25.1,25.1,0,0,0-11.917,17.04C235.875,174.764,240.455,180.113,240.455,180.113Z" transform="translate(-187.751 -134.518)" fill="#282828"/>
            <path id="Path_792" data-name="Path 792" d="M288.508,179.791s-14.8-17.819-11.86-35.266c0,0,10.263,5.93,12.726,18.211S288.508,179.791,288.508,179.791Z" transform="translate(-177.112 -134.77)" fill="#282828"/>
            <path id="Path_793" data-name="Path 793" d="M240.679,153.947s14.617,19.647,59.37,16.581c0,0-5.113-28.018-26.8-30.816C273.248,139.713,248.206,136.722,240.679,153.947Z" transform="translate(-186.907 -136.15)" fill="#282828"/>
            <g id="Group_504" data-name="Group 504" transform="translate(0 160.781)">
              <g id="Group_503" data-name="Group 503">
                <path id="Path_794" data-name="Path 794" d="M211.332,425.371c-.65,1.024,37.248-164.9,26-162.391-1.027.23-20.733,2.06-23.661,8.014-8.491,17.263-14.58,153.119-14.58,153.119Z" transform="translate(-198.356 -262.952)" fill="#ffb1a5"/>
                <path id="Path_795" data-name="Path 795" d="M199.245,390.07s-6.109,28.342,16.984,31.441a3.245,3.245,0,0,0,3.493-2.145l.066-.193a3.241,3.241,0,0,0-1.8-4.009c-3.765-1.683-9.6-5.938-6.707-15.6,0,0,3.337-.409,5.18,5.818a2.677,2.677,0,0,0,3.763,1.654h0a2.677,2.677,0,0,0,1.449-2.738c-.553-4.361-2.748-14.859-11.165-17.677Z" transform="translate(-198.514 -228.908)" fill="#ffb1a5"/>
              </g>
              <path id="Path_796" data-name="Path 796" d="M205.181,305.807s21.836,30.753,21.951,30.158,7.636-43.174,7.636-43.174l-26.5-11.479Z" transform="translate(-196.678 -257.898)" fill="#f3978e"/>
            </g>
            <g id="Group_505" data-name="Group 505" transform="translate(5.176 103.425)">
              <path id="Path_797" data-name="Path 797" d="M266.572,222.688c.932-.005-53.967.978-64,70.3l31.55,4.833,6.361,52.333H328.5l17.474-96.691s-12.422-20.949-48.63-31.212Z" transform="translate(-202.572 -216.8)" fill="#d94e41"/>
              <path id="Path_798" data-name="Path 798" d="M231.716,232.244s7.759,10.3,39.547,10.3c31.493,0,39.546-10.839,39.546-10.839s-18.565-10.373-40.109-13.728A142.716,142.716,0,0,0,231.716,232.244Z" transform="translate(-194.549 -217.976)" fill="#ffb1a5"/>
            </g>
          </g>
          <g id="Group_527" data-name="Group 527">
            <g id="Group_508" data-name="Group 508" transform="translate(180.37 377.37)">
              <g id="Group_507" data-name="Group 507" transform="translate(0 0)">
                <path id="Path_799" data-name="Path 799" d="M316.414,401.367l.076,138.246h68.391l5.256-138.246Z" transform="translate(-316.414 -401.367)" fill="#005683"/>
                <path id="Path_800" data-name="Path 800" d="M448.769,401.367l-.076,138.246H380.3l-5.256-138.246Z" transform="translate(-300.274 -401.367)" fill="#005683"/>
                <rect id="Rectangle_181" data-name="Rectangle 181" width="70.713" height="48.029" transform="translate(40.429)" fill="#005683"/>
              </g>
              <line id="Line_8" data-name="Line 8" x2="48.773" transform="translate(50.307 48.029)" fill="none" stroke="#282828" stroke-linecap="round" stroke-linejoin="round" stroke-width="1.397"/>
            </g>
            <g id="Group_510" data-name="Group 510" transform="translate(290.655 148.869)">
              <g id="Group_509" data-name="Group 509" transform="translate(35.518 107.856)">
                <path id="Path_801" data-name="Path 801" d="M476.642,306.763c4.24,46.846-.232,80.978,1.005,167.178l-40.82,1.709L430.745,314.3Z" transform="translate(-430.745 -306.763)" fill="#ffb1a5"/>
                <path id="Path_802" data-name="Path 802" d="M434.7,340.554s25.279-2.315,42.56-13.714l-.455-10.033-42.12,5.736Z" transform="translate(-429.662 -303.998)" fill="#f3978e"/>
              </g>
              <path id="Path_803" data-name="Path 803" d="M402.894,222.188s80.29,20.193,94.838,122.1c0,0-39.3,17.036-78.677,9.709l8.859-34.087Z" transform="translate(-402.894 -222.188)" fill="#048c7e"/>
            </g>
            <g id="Group_517" data-name="Group 517" transform="translate(0 129.952)">
              <g id="Group_514" data-name="Group 514">
                <path id="Path_804" data-name="Path 804" d="M220.093,255.417l59.782,70.6-18.294,51.518s-45.438-63.173-65.855-112Z" transform="translate(-169.266 -194.124)" fill="#ffb1a5"/>
                <g id="Group_513" data-name="Group 513">
                  <g id="Group_512" data-name="Group 512">
                    <g id="Group_511" data-name="Group 511">
                      <path id="Path_805" data-name="Path 805" d="M225.736,266.4s-20.992,11.86-26.332,7.57c-9.331-7.5-17.041-34.941-17.041-34.941s39.255-14.8,38.887-14.222S225.736,266.4,225.736,266.4Z" transform="translate(-172.945 -202.556)" fill="#ffb1a5"/>
                      <path id="Path_806" data-name="Path 806" d="M217.908,265.686c-.371-2.114,7.784-24.912,10.581-33.462a3.771,3.771,0,0,0-2.985-4.752h0a4.355,4.355,0,0,0-4.856,1.991L210.8,246.291Z" transform="translate(-165.117 -201.845)" fill="#ffb1a5"/>
                      <path id="Path_807" data-name="Path 807" d="M218.977,246.089l-6.76-33.634a4.234,4.234,0,0,0-4.893-3.357h0a3.646,3.646,0,0,0-2.993,4.044l2.946,25.044Z" transform="translate(-166.905 -206.894)" fill="#ffb1a5"/>
                      <path id="Path_808" data-name="Path 808" d="M208.916,234.144l-9.181-24.017a4.213,4.213,0,0,0-5.216-2.568h0a3.63,3.63,0,0,0-2.4,4.308l6.813,27.752Z" transform="translate(-170.286 -207.354)" fill="#ffb1a5"/>
                      <path id="Path_809" data-name="Path 809" d="M201.831,239.572l-11.615-23.6a4.617,4.617,0,0,0-5.9-2.261h0a4.023,4.023,0,0,0-2.075,5.313l9.26,22.279Z" transform="translate(-173.069 -205.702)" fill="#ffb1a5"/>
                      <path id="Path_810" data-name="Path 810" d="M184.4,240.082l-9.114-14.458a3.265,3.265,0,0,1,1.593-4.361h0a3.731,3.731,0,0,1,4.555,1.325l11.985,16.627Z" transform="translate(-174.978 -203.612)" fill="#ffb1a5"/>
                    </g>
                  </g>
                  <path id="Path_811" data-name="Path 811" d="M217.628,236.113s-13.687-1.436-15.094,16.806" transform="translate(-167.392 -199.445)" fill="none" stroke="#282828" stroke-linecap="round" stroke-linejoin="round" stroke-width="1.532"/>
                </g>
              </g>
              <g id="Group_516" data-name="Group 516" transform="translate(80.191 17.151)">
                <g id="Group_515" data-name="Group 515" transform="translate(0 41.165)">
                  <path id="Path_812" data-name="Path 812" d="M237.859,354.084S249.1,393,271.508,387.822s57.327-53.028,57.327-53.028l-7.816-81.712-62.887,77.4Z" transform="translate(-237.859 -253.082)" fill="#ffb1a5"/>
                  <path id="Path_813" data-name="Path 813" d="M269.051,296.438s21.232,32.026,39.345,43.318l11.854-14.964-45.732-35.377Z" transform="translate(-229.273 -243.081)" fill="#f3978e"/>
                </g>
                <path id="Path_814" data-name="Path 814" d="M362.519,220.8s-62.335,14.05-95.554,86.5c0,0,20.07,30.242,52.247,43.683l21.542-26.39Z" transform="translate(-229.847 -220.803)" fill="#048c7e"/>
              </g>
            </g>
            <g id="Group_518" data-name="Group 518" transform="translate(172.246 141.466)">
              <path id="Path_815" data-name="Path 815" d="M350.453,221.8A156.108,156.108,0,0,0,310.8,250.85l4.8,211.772h153.45l-.5-210.679s-19.342-18.929-40.3-28.157C410.441,215.948,367.764,212.917,350.453,221.8Z" transform="translate(-309.837 -216.383)" fill="#048c7e"/>
              <path id="Rectangle_182" data-name="Rectangle 182" d="M0,0H42.687a0,0,0,0,1,0,0V25.951A16.736,16.736,0,0,1,25.951,42.687H16.736A16.736,16.736,0,0,1,0,25.951V0A0,0,0,0,1,0,0Z" transform="translate(91.883 65.916)" fill="none" stroke="#282828" stroke-linecap="round" stroke-linejoin="round" stroke-width="1.397"/>
              <line id="Line_9" data-name="Line 9" y1="69.277" x2="1.991" transform="translate(158.961 70.726)" fill="none" stroke="#282828" stroke-linecap="round" stroke-linejoin="round" stroke-width="1.397"/>
              <line id="Line_10" data-name="Line 10" x1="3.316" y1="60.051" transform="translate(0 68.405)" fill="none" stroke="#282828" stroke-linecap="round" stroke-linejoin="round" stroke-width="1.397"/>
            </g>
            <path id="Path_816" data-name="Path 816" d="M344.841,172.051l-6.4-31.646c-.36-2.577-1.359-6.555-.135-10.293,2.026-6.184,9.473-18.059,22.2-12.621l2.752,12.528s-13.217,2.668-18.52,19.958Z" transform="translate(-130.18 -102.522)" fill="#282828"/>
            <path id="Path_817" data-name="Path 817" d="M358.965,122.313c-.231,4.157-3.9,22.35-16.8,28.979C342.161,151.292,330.859,127.054,358.965,122.313Z" transform="translate(-129.575 -100.812)" fill="#282828"/>
            <path id="Path_818" data-name="Path 818" d="M404.222,227.657h0V173.921H354.685v53.736l-14.746,6.722s3.459,22.271,40.035,22.765,40.25-21.669,40.25-21.669Z" transform="translate(-129.569 -86.606)" fill="#ffb1a5"/>
            <path id="Path_819" data-name="Path 819" d="M355.588,120.422s9.091-23.984,37.126-11.234c16.967,7.717,21.72,18.064,23.743,25.394a29.493,29.493,0,0,1,.756,8.552l-6.781,31.847-26.475-44.063L358.34,132.95Z" transform="translate(-125.261 -105.453)" fill="#282828"/>
            <g id="Group_521" data-name="Group 521" transform="translate(282.231 66.107)">
              <path id="Path_820" data-name="Path 820" d="M399.229,160.713s3.34-5.311,10.228-2.7,3.772,19.342-6.56,21.473a8.172,8.172,0,0,1-6.608-1.728S398.828,165.4,399.229,160.713Z" transform="translate(-396.288 -157.291)" fill="#f3978e"/>
              <g id="Group_520" data-name="Group 520" transform="translate(1.937 6.437)">
                <g id="Group_519" data-name="Group 519">
                  <path id="Path_821" data-name="Path 821" d="M407.673,162.525s-5.771-1.926-9.865,6.571" transform="translate(-397.807 -162.338)" fill="none" stroke="#282828" stroke-linecap="round" stroke-linejoin="round" stroke-width="1.397"/>
                </g>
              </g>
            </g>
            <g id="Group_524" data-name="Group 524" transform="translate(200.753 66.107)">
              <path id="Path_822" data-name="Path 822" d="M346.305,160.713s-3.34-5.311-10.228-2.7-3.772,19.342,6.56,21.473a8.173,8.173,0,0,0,6.608-1.728S346.7,165.4,346.305,160.713Z" transform="translate(-332.397 -157.291)" fill="#f3978e"/>
              <g id="Group_523" data-name="Group 523" transform="translate(5.046 6.437)">
                <g id="Group_522" data-name="Group 522">
                  <path id="Path_823" data-name="Path 823" d="M336.354,162.525s5.771-1.926,9.866,6.571" transform="translate(-336.354 -162.338)" fill="none" stroke="#282828" stroke-linecap="round" stroke-linejoin="round" stroke-width="1.397"/>
                </g>
              </g>
            </g>
            <path id="Path_824" data-name="Path 824" d="M414.676,155.262c0,10.085-.987,31.183-7.186,43.706-5.822,11.758-15.449,18.086-28.071,18.462s-22.024-4.488-29.56-19.748-7.176-42.233-7.176-42.233,0-36.025,35.606-36.025C415.789,119.424,414.676,155.262,414.676,155.262Z" transform="translate(-128.814 -101.607)" fill="#ffb1a5"/>
            <path id="Path_825" data-name="Path 825" d="M351.794,186.688s4.148,21.048,22.466,23.466c21.083,2.784,26.7-22.932,26.7-22.932s-9.316,11.674-24.049,11.692A32.235,32.235,0,0,1,351.794,186.688Z" transform="translate(-126.305 -83.092)" fill="#282828"/>
            <g id="Group_526" data-name="Group 526" transform="translate(214.305 45.224)">
              <path id="Path_826" data-name="Path 826" d="M368.917,159.254v8.338a2.726,2.726,0,0,0,.2,1.016,2.683,2.683,0,0,0,3.2,1.484l2.765-.736" transform="translate(-335.897 -135.868)" fill="none" stroke="#282828" stroke-linecap="round" stroke-linejoin="round" stroke-width="1.397"/>
              <path id="Path_827" data-name="Path 827" d="M362.071,156.832a3.242,3.242,0,1,1-3.242-3.242A3.242,3.242,0,0,1,362.071,156.832Z" transform="translate(-339.566 -137.427)" fill="#282828"/>
              <path id="Path_828" data-name="Path 828" d="M385.9,156.832a3.241,3.241,0,1,1-3.24-3.242A3.241,3.241,0,0,1,385.9,156.832Z" transform="translate(-333.006 -137.427)" fill="#282828"/>
              <path id="Path_829" data-name="Path 829" d="M375.454,144.2l21.793,5.629s-.991-6.112-9.906-8.334S375.454,144.2,375.454,144.2Z" transform="translate(-334.097 -140.916)" fill="#282828"/>
              <path id="Path_830" data-name="Path 830" d="M369.539,144.2l-21.793,5.629s.991-6.112,9.906-8.334S369.539,144.2,369.539,144.2Z" transform="translate(-341.725 -140.916)" fill="#282828"/>
              <path id="Path_831" data-name="Path 831" d="M361.436,172.379s3.215,2.464,11.67,2.464a29.551,29.551,0,0,0,12.49-2.464" transform="translate(-337.956 -132.255)" fill="none" stroke="#282828" stroke-linecap="round" stroke-linejoin="round" stroke-width="1.397"/>
              <g id="Group_525" data-name="Group 525" transform="translate(0 6.579)">
                <circle id="Ellipse_60" data-name="Ellipse 60" cx="13.773" cy="13.773" r="13.773" transform="translate(4.618)" fill="none" stroke="#fff" stroke-miterlimit="10" stroke-width="1.951"/>
                <circle id="Ellipse_61" data-name="Ellipse 61" cx="13.773" cy="13.773" r="13.773" transform="translate(38.454)" fill="none" stroke="#fff" stroke-miterlimit="10" stroke-width="1.951"/>
                <path id="Path_832" data-name="Path 832" d="M368.246,157.167s3.262-3.045,6.29,0" transform="translate(-336.081 -143.393)" fill="none" stroke="#fff" stroke-miterlimit="10" stroke-width="1.951"/>
                <line id="Line_11" data-name="Line 11" x1="4.618" y1="0.117" transform="translate(0 13.656)" fill="none" stroke="#fff" stroke-miterlimit="10" stroke-width="1.951"/>
                <line id="Line_12" data-name="Line 12" y1="0.084" x2="5.156" transform="translate(66.001 13.69)" fill="none" stroke="#fff" stroke-miterlimit="10" stroke-width="1.951"/>
              </g>
            </g>
            <path id="Path_833" data-name="Path 833" d="M351.794,124.682s6.615,18.791,36.461,18.215c20.281-.391,25.127,14.284,25.127,14.284s-3.53-32.809-4.457-32.5-30.862-7.987-30.862-7.987Z" transform="translate(-126.305 -102.359)" fill="#282828"/>
          </g>
        </g>
      </g>
    </g>
  </g>
</svg>
